<?xml version="1.0" encoding="utf-8"?>
<!-- Generator: Adobe Illustrator 27.5.0, SVG Export Plug-In . SVG Version: 6.00 Build 0)  -->
<svg version="1.1" id="레이어_1" xmlns="http://www.w3.org/2000/svg" xmlns:xlink="http://www.w3.org/1999/xlink" x="0px"
	 y="0px" viewBox="0 0 1080 1080" style="enable-background:new 0 0 1080 1080;" xml:space="preserve">
<style type="text/css">
	.st0{fill:none;stroke:#000000;stroke-width:25;stroke-miterlimit:10;}
</style>
<g>
	<g>
		<path class="st0" d="M709.89,737.94c0,0-15.56-39.43,79.83-101.44c88.58-57.58,58.17-96.52,53.54-101.63
			c-0.36-0.39-0.7-0.8-1.02-1.23c-3.8-5-30.31-35.56-81.42,9.11c0,0-60.91,47.72-59.19-38s-0.02-207.67-0.02-207.67
			c-0.01-0.55,0-1.45,0.01-2c0,0,1.38-50.29-44.38-38.96c0,0-20.82,4.99-20.3,38.42c0.52,33.43-0.01,198.84-0.01,198.84
			c0,0.55,0,0.55,0,0V276.07c0-0.87-0.06-1.73-0.19-2.59c-1.03-6.89-6.92-35.95-33.94-43.93c-1.9-0.56-3.88-0.71-5.83-0.46
			c-7.62,1-26.82,6-32.29,31.06c-0.25,1.15-0.35,2.32-0.35,3.5v8.37c0,0.55,0,1.45,0,2V496.8c0,0.55,0,0.55,0,0l-0.57-198.76
			c-0.01-1.8-0.28-3.57-0.82-5.27c-2.72-8.61-12.89-32.84-39.9-26.65c0,0-27.87,5.19-27.87,45.72c0,9.81,0,38.42,0,56.66
			c0,57.15,0,124.88,0,124.88c0,0.55,0,0.55,0,0l-0.42-134.89c-0.02-4.94-2.07-9.65-5.67-12.73c-6.54-5.59-18.51-13.22-34.51-12.41
			c-2.84,0.14-5.76,1.06-8.55,2.34c-11.04,5.1-18.97,16.13-21.75,29.11c-1.15,5.37-2.12,11.99-2.54,19.96
			c-0.08,1.51-0.19,3.08-0.18,4.69l0,300.97c0,0.88-0.06,1.75-0.19,2.61c-0.92,5.98-5.94,26.91-31.13,28.39
			c-28.55,1.68-58.61-28.48-39.83-67.95c1.12-2.35,2.8-4.34,4.82-5.85h0c2.55-1.9,5.58-2.92,8.68-2.92h44.7c0.55,0,0.55,0,0,0
			h-94.58c-1.33,0-2.65-0.18-3.93-0.55c-7.08-2.09-28.3-11.18-26.2-44.53c2.52-39.96,22.86-38.01,22.86-38.01
			c0.55,0.05,1.45,0.1,2,0.1h92.97c0.55,0,0.55,0,0,0H278.62c-2.77,0-5.51-0.8-7.87-2.35c-8.87-5.84-28.81-22.48-19.13-49.33
			c0.33-0.9,0.59-1.83,0.79-2.77c0.74-3.58,4.42-14.6,22.31-22.69c1.75-0.79,3.62-1.19,5.52-1.23l126.07-2.55
			c0.55-0.01,0.55-0.01,0,0l-114.28,1.89c-4.05,0.07-7.97-1.58-10.86-4.63c-5.44-5.74-12.76-17.27-12.42-37.63
			c0-0.22,0-0.44-0.01-0.66c-0.1-3.34,0-34.53,40.39-34.29c42.67,0.26,106.44,0.51,106.44,0.51"/>
	</g>
	<circle class="st0" cx="709.71" cy="736.96" r="0.44"/>
</g>
</svg>
